# xmcd CD database file
#
# Track frame offsets:
#	150
#	17130
#	27887
#	42580
#	55977
#	69205
#	88227
#	106397
#	126437
#	143887
#	160160
#
# Disc length: 2378 seconds
#
# Revision: 1
# Processed by: cddbd v1.5.2PL0 Copyright (c) Steve Scherf et al.
# Submitted via: CDex 1.51
#
DISCID=9809480b
DTITLE=Lightning - Lightning Strike
DYEAR=1988
DGENRE=New Age
TTITLE0=Get Ready
TTITLE1=The Pack
TTITLE2=Exocet Alley
TTITLE3=Beatbox International
TTITLE4=High Tech War
TTITLE5=Beat Street
TTITLE6=Southside Blues
TTITLE7=City Of Nightmares
TTITLE8=Cap It All
TTITLE9=America's Calling
TTITLE10=Going For Gold
EXTD=YEAR: 1988
EXTT0=
EXTT1=
EXTT2=
EXTT3=
EXTT4=
EXTT5=
EXTT6=
EXTT7=
EXTT8=
EXTT9=
EXTT10=
PLAYORDER=
